<svg xmlns="http://www.w3.org/2000/svg" viewBox="0 0 979.8 416.67"><defs><style>.cls-1{isolation:isolate;}.cls-2{mix-blend-mode:screen;}.cls-3{font-size:77.43px;fill:#0c5c3d;font-family:Junction-Regular, Junction;letter-spacing:0.1em;}.cls-4{fill:#005c3d;}.cls-5{fill:#049648;}.cls-6{fill:#e7562f;}.cls-7{fill:#d63b3f;}.cls-8{fill:#fad763;}.cls-9{fill:none;}</style></defs><title>gill-logo</title><g class="cls-1"><g id="Layer_1" data-name="Layer 1"><text class="cls-3" transform="translate(13.61 401.75)">LANDSCAPE NURSERY</text><path class="cls-4" d="M303.49,25H107.68S74.89,29.71,51.46,51.25,23.36,100.91,23.36,114V308h210.8s25.3-1.87,46.84-26.23,22.49-33.73,22.49-43.1V132.76H133v72.1h95.56v10.34s-5.62,19.67-19.67,19.67H106.74V123.39s4.68-21.55,20.61-21.55,176.13.94,176.13.94V25Z"/><polygon class="cls-4" points="414.98 99.03 340.96 99.03 340.96 25.02 414.98 25.02 414.98 99.03 414.98 99.03"/><polygon class="cls-4" points="414.98 307.96 340.96 307.96 340.96 131.83 414.98 131.83 414.98 307.96 414.98 307.96"/><polygon class="cls-4" points="518.97 307.96 444.96 307.96 444.96 25.02 518.97 25.02 518.97 307.96 518.97 307.96"/><polygon class="cls-4" points="626.71 307.96 551.76 307.96 551.76 25.02 626.71 25.02 626.71 307.96 626.71 307.96"/><path class="cls-5" d="M673.55,172.11V95.29S676.37,72.8,691.35,55s39.35-30,50.59-30h210.8V151.5L915.27,188,920,106.53l-95.56-59L743.82,93.41,736.32,188l-11.24,16.83-51.53-32.75Z"/><path class="cls-4" d="M673.55,191.79V308H871.24s37.48-9.37,57.15-29,24.36-46.84,24.36-55.28v-45l-49.65,48.72-96.5,42.16-133-77.76Z"/><polygon class="cls-6" points="753.19 106.53 768.18 99.03 763.85 150.45 791.25 180.31 864.68 180.31 864.68 194.36 797.58 212.98 749.79 194.36 753.19 106.53 753.19 106.53"/><polygon class="cls-7" points="784.93 87.56 782.82 101.61 793.71 92.48 864.68 93.18 821.47 64.72 784.93 87.56 784.93 87.56"/><polygon class="cls-8" points="843.6 104.77 800.03 104.77 779.66 127.96 779.66 145.53 796.17 164.5 867.49 164.5 867.49 108.29 856.95 107.94 856.95 151.15 813.15 151.5 797.93 134.64 813.15 110.04 843.25 110.04 843.6 104.77 843.6 104.77"/><polygon class="cls-8" points="820.41 119.53 845 119.53 845 138.85 820.41 138.85 820.41 132.88 839.38 132.88 839.38 124.45 820.41 124.45 820.41 119.53 820.41 119.53"/><polygon class="cls-7" points="886.11 107.23 901.57 117.07 895.24 212.98 803.55 251.98 739.96 212.98 743.47 208.42 798.98 231.25 879.08 211.23 886.11 107.23 886.11 107.23"/><rect class="cls-9" x="-32.7" y="11.55" width="1012.5" height="314.21"/></g></g></svg>