<svg xmlns="http://www.w3.org/2000/svg" width="1.69in" height="0.36in" viewBox="0 0 121.94 25.86"><defs><style>.hrmg-svg{fill:#FF8500;}</style></defs><title>hrmg</title><path class="hrmg-svg" d="M24.32,8.26,27,7.43v25h-2.7v-11H9.7v11H7V8.26l2.7-.83V19H24.32Z" transform="translate(-7 -7.14)"/><path class="hrmg-svg" d="M57,14.65c0,4.18-2.28,5.94-5.39,6.6l6.74,9.88-2.07,1.69L48.72,21.56H43.57V32.45H40.84V7.74h7.29C52.83,7.74,57,9,57,14.65ZM43.57,19.11h4.56c3.35,0,6.08-1,6.08-4.46s-2.73-4.46-6.08-4.46H43.57Z" transform="translate(-7 -7.14)"/><path class="hrmg-svg" d="M92.82,7.36l4.94,25.09h-2.7L91.82,14.79,83.35,31.65,74.92,14.79,71.6,32.45h-2.7l5-25,9.44,18.35Z" transform="translate(-7 -7.14)"/><path class="hrmg-svg" d="M119.54,33a12.93,12.93,0,0,1-.1-25.85,12.65,12.65,0,0,1,7.88,2.63v3.59a10.05,10.05,0,0,0-7.88-3.73,10.24,10.24,0,0,0-10.06,10.44,10.31,10.31,0,0,0,10.16,10.44A10.11,10.11,0,0,0,126.21,28V23.39h-6.43l.83-2.45h8.33v8A13.08,13.08,0,0,1,119.54,33Z" transform="translate(-7 -7.14)"/></svg>
